<mxfile host="app.diagrams.net" modified="2024-03-02T01:26:17.825Z" agent="Mozilla/5.0 (Windows NT 10.0; Win64; x64; rv:123.0) Gecko/20100101 Firefox/123.0" etag="yFcQUOmk3G7Je77HPfMQ" version="24.0.0" type="device">
  <diagram name="Page-1" id="2YBvvXClWsGukQMizWep">
    <mxGraphModel dx="865" dy="442" grid="1" gridSize="10" guides="1" tooltips="1" connect="1" arrows="1" fold="1" page="1" pageScale="1" pageWidth="850" pageHeight="1100" math="0" shadow="0">
      <root>
        <mxCell id="0" />
        <mxCell id="1" parent="0" />
        <mxCell id="aM9ryv3xv72pqoxQDRHE-1" value="c: Character" style="shape=umlLifeline;perimeter=lifelinePerimeter;whiteSpace=wrap;html=1;container=0;dropTarget=0;collapsible=0;recursiveResize=0;outlineConnect=0;portConstraint=eastwest;newEdgeStyle={&quot;edgeStyle&quot;:&quot;elbowEdgeStyle&quot;,&quot;elbow&quot;:&quot;vertical&quot;,&quot;curved&quot;:0,&quot;rounded&quot;:0};" parent="1" vertex="1">
          <mxGeometry x="110" y="40" width="100" height="1040" as="geometry" />
        </mxCell>
        <mxCell id="aM9ryv3xv72pqoxQDRHE-2" value="" style="html=1;points=[];perimeter=orthogonalPerimeter;outlineConnect=0;targetShapes=umlLifeline;portConstraint=eastwest;newEdgeStyle={&quot;edgeStyle&quot;:&quot;elbowEdgeStyle&quot;,&quot;elbow&quot;:&quot;vertical&quot;,&quot;curved&quot;:0,&quot;rounded&quot;:0};" parent="aM9ryv3xv72pqoxQDRHE-1" vertex="1">
          <mxGeometry x="45" y="70" width="10" height="880" as="geometry" />
        </mxCell>
        <mxCell id="aM9ryv3xv72pqoxQDRHE-3" value="action(remainingActions)" style="html=1;verticalAlign=bottom;startArrow=none;endArrow=block;startSize=8;edgeStyle=elbowEdgeStyle;elbow=vertical;curved=0;rounded=0;startFill=0;" parent="aM9ryv3xv72pqoxQDRHE-1" target="aM9ryv3xv72pqoxQDRHE-2" edge="1">
          <mxGeometry relative="1" as="geometry">
            <mxPoint x="-90" y="70" as="sourcePoint" />
          </mxGeometry>
        </mxCell>
        <mxCell id="lz4j7gLJc6vTmFdTS50S-2" value="" style="html=1;points=[[0,0,0,0,5],[0,1,0,0,-5],[1,0,0,0,5],[1,1,0,0,-5]];perimeter=orthogonalPerimeter;outlineConnect=0;targetShapes=umlLifeline;portConstraint=eastwest;newEdgeStyle={&quot;curved&quot;:0,&quot;rounded&quot;:0};" vertex="1" parent="aM9ryv3xv72pqoxQDRHE-1">
          <mxGeometry x="50" y="120" width="10" height="40" as="geometry" />
        </mxCell>
        <mxCell id="lz4j7gLJc6vTmFdTS50S-3" value="a: getActionsFromPlayer()" style="html=1;align=left;spacingLeft=2;endArrow=block;rounded=0;edgeStyle=orthogonalEdgeStyle;curved=0;rounded=0;" edge="1" target="lz4j7gLJc6vTmFdTS50S-2" parent="aM9ryv3xv72pqoxQDRHE-1" source="aM9ryv3xv72pqoxQDRHE-2">
          <mxGeometry relative="1" as="geometry">
            <mxPoint x="70" y="70" as="sourcePoint" />
            <Array as="points">
              <mxPoint x="90" y="100" />
              <mxPoint x="90" y="120" />
            </Array>
          </mxGeometry>
        </mxCell>
        <mxCell id="aM9ryv3xv72pqoxQDRHE-5" value="s: Student" style="shape=umlLifeline;perimeter=lifelinePerimeter;whiteSpace=wrap;html=1;container=0;dropTarget=0;collapsible=0;recursiveResize=0;outlineConnect=0;portConstraint=eastwest;newEdgeStyle={&quot;edgeStyle&quot;:&quot;elbowEdgeStyle&quot;,&quot;elbow&quot;:&quot;vertical&quot;,&quot;curved&quot;:0,&quot;rounded&quot;:0};" parent="1" vertex="1">
          <mxGeometry x="290" y="40" width="100" height="1040" as="geometry" />
        </mxCell>
        <mxCell id="lz4j7gLJc6vTmFdTS50S-39" value="getActionsFromGameController()" style="html=1;verticalAlign=bottom;endArrow=block;edgeStyle=elbowEdgeStyle;elbow=vertical;curved=0;rounded=0;" edge="1" parent="aM9ryv3xv72pqoxQDRHE-5" target="lz4j7gLJc6vTmFdTS50S-43">
          <mxGeometry x="-0.1176" relative="1" as="geometry">
            <mxPoint x="-130" y="220" as="sourcePoint" />
            <Array as="points">
              <mxPoint x="-40" y="220" />
              <mxPoint x="-40" y="150" />
            </Array>
            <mxPoint x="50" y="220" as="targetPoint" />
            <mxPoint as="offset" />
          </mxGeometry>
        </mxCell>
        <mxCell id="lz4j7gLJc6vTmFdTS50S-40" value="" style="html=1;verticalAlign=bottom;endArrow=open;dashed=1;endSize=8;edgeStyle=elbowEdgeStyle;elbow=vertical;curved=0;rounded=0;" edge="1" parent="aM9ryv3xv72pqoxQDRHE-5" source="lz4j7gLJc6vTmFdTS50S-43">
          <mxGeometry relative="1" as="geometry">
            <mxPoint x="-125" y="259" as="targetPoint" />
            <Array as="points">
              <mxPoint x="-32.5" y="259" />
              <mxPoint x="-42.5" y="249" />
            </Array>
            <mxPoint x="45" y="259" as="sourcePoint" />
          </mxGeometry>
        </mxCell>
        <mxCell id="lz4j7gLJc6vTmFdTS50S-41" value="opt" style="shape=umlFrame;whiteSpace=wrap;html=1;pointerEvents=0;" vertex="1" parent="aM9ryv3xv72pqoxQDRHE-5">
          <mxGeometry x="-240" y="190" width="510" height="100" as="geometry" />
        </mxCell>
        <mxCell id="lz4j7gLJc6vTmFdTS50S-36" value="opt" style="shape=umlFrame;whiteSpace=wrap;html=1;pointerEvents=0;" vertex="1" parent="1">
          <mxGeometry x="50" y="120" width="300" height="100" as="geometry" />
        </mxCell>
        <mxCell id="lz4j7gLJc6vTmFdTS50S-37" value="&lt;div&gt;[c is Student]&lt;/div&gt;" style="text;html=1;align=center;verticalAlign=middle;resizable=0;points=[];autosize=1;strokeColor=none;fillColor=none;" vertex="1" parent="1">
          <mxGeometry x="50" y="155" width="90" height="30" as="geometry" />
        </mxCell>
        <mxCell id="lz4j7gLJc6vTmFdTS50S-42" value="[c is Instructor]" style="text;html=1;align=center;verticalAlign=middle;resizable=0;points=[];autosize=1;strokeColor=none;fillColor=none;" vertex="1" parent="1">
          <mxGeometry x="50" y="260" width="100" height="30" as="geometry" />
        </mxCell>
        <mxCell id="lz4j7gLJc6vTmFdTS50S-43" value=":Object" style="shape=umlLifeline;perimeter=lifelinePerimeter;whiteSpace=wrap;html=1;container=1;dropTarget=0;collapsible=0;recursiveResize=0;outlineConnect=0;portConstraint=eastwest;newEdgeStyle={&quot;curved&quot;:0,&quot;rounded&quot;:0};" vertex="1" parent="1">
          <mxGeometry x="450" y="40" width="100" height="1040" as="geometry" />
        </mxCell>
        <mxCell id="lz4j7gLJc6vTmFdTS50S-38" value="" style="html=1;points=[];perimeter=orthogonalPerimeter;outlineConnect=0;targetShapes=umlLifeline;portConstraint=eastwest;newEdgeStyle={&quot;edgeStyle&quot;:&quot;elbowEdgeStyle&quot;,&quot;elbow&quot;:&quot;vertical&quot;,&quot;curved&quot;:0,&quot;rounded&quot;:0};" vertex="1" parent="lz4j7gLJc6vTmFdTS50S-43">
          <mxGeometry x="45" y="220" width="10" height="40" as="geometry" />
        </mxCell>
        <mxCell id="lz4j7gLJc6vTmFdTS50S-14" value="" style="html=1;points=[[0,0,0,0,5],[0,1,0,0,-5],[1,0,0,0,5],[1,1,0,0,-5]];perimeter=orthogonalPerimeter;outlineConnect=0;targetShapes=umlLifeline;portConstraint=eastwest;newEdgeStyle={&quot;curved&quot;:0,&quot;rounded&quot;:0};" vertex="1" parent="1">
          <mxGeometry x="160" y="380" width="10" height="40" as="geometry" />
        </mxCell>
        <mxCell id="lz4j7gLJc6vTmFdTS50S-15" value="move(r1, r2)" style="html=1;align=left;spacingLeft=2;endArrow=block;rounded=0;edgeStyle=orthogonalEdgeStyle;curved=0;rounded=0;" edge="1" target="lz4j7gLJc6vTmFdTS50S-14" parent="1">
          <mxGeometry relative="1" as="geometry">
            <mxPoint x="165" y="360" as="sourcePoint" />
            <Array as="points">
              <mxPoint x="195" y="390" />
            </Array>
          </mxGeometry>
        </mxCell>
        <mxCell id="lz4j7gLJc6vTmFdTS50S-12" value="opt" style="shape=umlFrame;whiteSpace=wrap;html=1;pointerEvents=0;" vertex="1" parent="1">
          <mxGeometry x="90" y="450" width="190" height="100" as="geometry" />
        </mxCell>
        <mxCell id="lz4j7gLJc6vTmFdTS50S-13" value="[a == 2]" style="text;html=1;align=center;verticalAlign=middle;resizable=0;points=[];autosize=1;strokeColor=none;fillColor=none;" vertex="1" parent="1">
          <mxGeometry x="90" y="490" width="60" height="30" as="geometry" />
        </mxCell>
        <mxCell id="lz4j7gLJc6vTmFdTS50S-16" value="" style="html=1;points=[[0,0,0,0,5],[0,1,0,0,-5],[1,0,0,0,5],[1,1,0,0,-5]];perimeter=orthogonalPerimeter;outlineConnect=0;targetShapes=umlLifeline;portConstraint=eastwest;newEdgeStyle={&quot;curved&quot;:0,&quot;rounded&quot;:0};" vertex="1" parent="1">
          <mxGeometry x="160" y="495" width="10" height="40" as="geometry" />
        </mxCell>
        <mxCell id="lz4j7gLJc6vTmFdTS50S-17" value="pickUpItem(i)" style="html=1;align=left;spacingLeft=2;endArrow=block;rounded=0;edgeStyle=orthogonalEdgeStyle;curved=0;rounded=0;" edge="1" target="lz4j7gLJc6vTmFdTS50S-16" parent="1">
          <mxGeometry relative="1" as="geometry">
            <mxPoint x="165" y="475" as="sourcePoint" />
            <Array as="points">
              <mxPoint x="195" y="505" />
            </Array>
          </mxGeometry>
        </mxCell>
        <mxCell id="lz4j7gLJc6vTmFdTS50S-18" value="" style="html=1;points=[];perimeter=orthogonalPerimeter;outlineConnect=0;targetShapes=umlLifeline;portConstraint=eastwest;newEdgeStyle={&quot;edgeStyle&quot;:&quot;elbowEdgeStyle&quot;,&quot;elbow&quot;:&quot;vertical&quot;,&quot;curved&quot;:0,&quot;rounded&quot;:0};" vertex="1" parent="1">
          <mxGeometry x="335" y="590" width="10" height="40" as="geometry" />
        </mxCell>
        <mxCell id="lz4j7gLJc6vTmFdTS50S-19" value="useItem(i)" style="html=1;verticalAlign=bottom;endArrow=block;edgeStyle=elbowEdgeStyle;elbow=vertical;curved=0;rounded=0;" edge="1" parent="1">
          <mxGeometry x="-0.1176" relative="1" as="geometry">
            <mxPoint x="160" y="590" as="sourcePoint" />
            <Array as="points">
              <mxPoint x="250" y="590" />
              <mxPoint x="250" y="520" />
            </Array>
            <mxPoint x="340" y="590" as="targetPoint" />
            <mxPoint as="offset" />
          </mxGeometry>
        </mxCell>
        <mxCell id="lz4j7gLJc6vTmFdTS50S-20" value="" style="html=1;verticalAlign=bottom;endArrow=open;dashed=1;endSize=8;edgeStyle=elbowEdgeStyle;elbow=vertical;curved=0;rounded=0;" edge="1" parent="1">
          <mxGeometry relative="1" as="geometry">
            <mxPoint x="165" y="629" as="targetPoint" />
            <Array as="points">
              <mxPoint x="257.5" y="629" />
              <mxPoint x="247.5" y="619" />
            </Array>
            <mxPoint x="335" y="629" as="sourcePoint" />
          </mxGeometry>
        </mxCell>
        <mxCell id="lz4j7gLJc6vTmFdTS50S-21" value="opt" style="shape=umlFrame;whiteSpace=wrap;html=1;pointerEvents=0;" vertex="1" parent="1">
          <mxGeometry x="90" y="560" width="300" height="100" as="geometry" />
        </mxCell>
        <mxCell id="lz4j7gLJc6vTmFdTS50S-22" value="[a == 3]" style="text;html=1;align=center;verticalAlign=middle;resizable=0;points=[];autosize=1;strokeColor=none;fillColor=none;" vertex="1" parent="1">
          <mxGeometry x="90" y="600" width="60" height="30" as="geometry" />
        </mxCell>
        <mxCell id="lz4j7gLJc6vTmFdTS50S-28" value="" style="html=1;points=[];perimeter=orthogonalPerimeter;outlineConnect=0;targetShapes=umlLifeline;portConstraint=eastwest;newEdgeStyle={&quot;edgeStyle&quot;:&quot;elbowEdgeStyle&quot;,&quot;elbow&quot;:&quot;vertical&quot;,&quot;curved&quot;:0,&quot;rounded&quot;:0};" vertex="1" parent="1">
          <mxGeometry x="335" y="700" width="10" height="40" as="geometry" />
        </mxCell>
        <mxCell id="lz4j7gLJc6vTmFdTS50S-29" value="dropItem(i)" style="html=1;verticalAlign=bottom;endArrow=block;edgeStyle=elbowEdgeStyle;elbow=vertical;curved=0;rounded=0;" edge="1" parent="1">
          <mxGeometry x="-0.1176" relative="1" as="geometry">
            <mxPoint x="160" y="700" as="sourcePoint" />
            <Array as="points">
              <mxPoint x="250" y="700" />
              <mxPoint x="250" y="630" />
            </Array>
            <mxPoint x="340" y="700" as="targetPoint" />
            <mxPoint as="offset" />
          </mxGeometry>
        </mxCell>
        <mxCell id="lz4j7gLJc6vTmFdTS50S-30" value="" style="html=1;verticalAlign=bottom;endArrow=open;dashed=1;endSize=8;edgeStyle=elbowEdgeStyle;elbow=vertical;curved=0;rounded=0;" edge="1" parent="1">
          <mxGeometry relative="1" as="geometry">
            <mxPoint x="165" y="739" as="targetPoint" />
            <Array as="points">
              <mxPoint x="257.5" y="739" />
              <mxPoint x="247.5" y="729" />
            </Array>
            <mxPoint x="335" y="739" as="sourcePoint" />
          </mxGeometry>
        </mxCell>
        <mxCell id="lz4j7gLJc6vTmFdTS50S-31" value="opt" style="shape=umlFrame;whiteSpace=wrap;html=1;pointerEvents=0;" vertex="1" parent="1">
          <mxGeometry x="90" y="670" width="300" height="100" as="geometry" />
        </mxCell>
        <mxCell id="lz4j7gLJc6vTmFdTS50S-32" value="[a == 4]" style="text;html=1;align=center;verticalAlign=middle;resizable=0;points=[];autosize=1;strokeColor=none;fillColor=none;" vertex="1" parent="1">
          <mxGeometry x="90" y="710" width="60" height="30" as="geometry" />
        </mxCell>
        <mxCell id="lz4j7gLJc6vTmFdTS50S-7" value="opt" style="shape=umlFrame;whiteSpace=wrap;html=1;pointerEvents=0;" vertex="1" parent="1">
          <mxGeometry x="90" y="340" width="190" height="100" as="geometry" />
        </mxCell>
        <mxCell id="lz4j7gLJc6vTmFdTS50S-8" value="[a == 1]" style="text;html=1;align=center;verticalAlign=middle;resizable=0;points=[];autosize=1;strokeColor=none;fillColor=none;" vertex="1" parent="1">
          <mxGeometry x="90" y="380" width="60" height="30" as="geometry" />
        </mxCell>
        <mxCell id="lz4j7gLJc6vTmFdTS50S-23" value="" style="html=1;points=[];perimeter=orthogonalPerimeter;outlineConnect=0;targetShapes=umlLifeline;portConstraint=eastwest;newEdgeStyle={&quot;edgeStyle&quot;:&quot;elbowEdgeStyle&quot;,&quot;elbow&quot;:&quot;vertical&quot;,&quot;curved&quot;:0,&quot;rounded&quot;:0};" vertex="1" parent="1">
          <mxGeometry x="335" y="810" width="10" height="40" as="geometry" />
        </mxCell>
        <mxCell id="lz4j7gLJc6vTmFdTS50S-24" value="useTransistor()" style="html=1;verticalAlign=bottom;endArrow=block;edgeStyle=elbowEdgeStyle;elbow=vertical;curved=0;rounded=0;" edge="1" parent="1">
          <mxGeometry x="-0.1176" relative="1" as="geometry">
            <mxPoint x="160" y="810" as="sourcePoint" />
            <Array as="points">
              <mxPoint x="250" y="810" />
              <mxPoint x="250" y="740" />
            </Array>
            <mxPoint x="340" y="810" as="targetPoint" />
            <mxPoint as="offset" />
          </mxGeometry>
        </mxCell>
        <mxCell id="lz4j7gLJc6vTmFdTS50S-25" value="" style="html=1;verticalAlign=bottom;endArrow=open;dashed=1;endSize=8;edgeStyle=elbowEdgeStyle;elbow=vertical;curved=0;rounded=0;" edge="1" parent="1">
          <mxGeometry relative="1" as="geometry">
            <mxPoint x="165" y="849" as="targetPoint" />
            <Array as="points">
              <mxPoint x="257.5" y="849" />
              <mxPoint x="247.5" y="839" />
            </Array>
            <mxPoint x="335" y="849" as="sourcePoint" />
          </mxGeometry>
        </mxCell>
        <mxCell id="lz4j7gLJc6vTmFdTS50S-26" value="opt" style="shape=umlFrame;whiteSpace=wrap;html=1;pointerEvents=0;" vertex="1" parent="1">
          <mxGeometry x="90" y="780" width="300" height="100" as="geometry" />
        </mxCell>
        <mxCell id="lz4j7gLJc6vTmFdTS50S-27" value="[a == 5]" style="text;html=1;align=center;verticalAlign=middle;resizable=0;points=[];autosize=1;strokeColor=none;fillColor=none;" vertex="1" parent="1">
          <mxGeometry x="90" y="820" width="60" height="30" as="geometry" />
        </mxCell>
      </root>
    </mxGraphModel>
  </diagram>
</mxfile>
